<mxfile host="app.diagrams.net" modified="2022-11-11T07:26:28.385Z" agent="5.0 (Macintosh; Intel Mac OS X 10_15_7) AppleWebKit/537.36 (KHTML, like Gecko) Chrome/107.0.0.0 Safari/537.36" etag="w6P_ICbk3GBdOVVLv5L9" version="16.5.6" type="github">
  <diagram id="Aqf99x5-OG6gZ8053Yl7" name="第 1 页">
    <mxGraphModel dx="996" dy="561" grid="1" gridSize="10" guides="1" tooltips="1" connect="1" arrows="1" fold="1" page="1" pageScale="1" pageWidth="827" pageHeight="1169" math="0" shadow="0">
      <root>
        <mxCell id="0" />
        <mxCell id="1" parent="0" />
        <mxCell id="qlhYkGJH06k92T9zRMgj-84" value="" style="rounded=1;whiteSpace=wrap;html=1;" vertex="1" parent="1">
          <mxGeometry x="251.88" y="2" width="176.25" height="471" as="geometry" />
        </mxCell>
        <mxCell id="qlhYkGJH06k92T9zRMgj-83" value="" style="rounded=1;whiteSpace=wrap;html=1;fontSize=18;fontColor=#000000;strokeColor=#000000;strokeWidth=1;dashed=1;" vertex="1" parent="1">
          <mxGeometry x="937.5" y="36.75" width="205" height="436.25" as="geometry" />
        </mxCell>
        <mxCell id="qlhYkGJH06k92T9zRMgj-63" value="" style="rounded=1;whiteSpace=wrap;html=1;" vertex="1" parent="1">
          <mxGeometry x="460" y="187" width="450" height="130" as="geometry" />
        </mxCell>
        <mxCell id="qlhYkGJH06k92T9zRMgj-3" style="edgeStyle=orthogonalEdgeStyle;rounded=0;orthogonalLoop=1;jettySize=auto;html=1;exitX=0;exitY=0.5;exitDx=0;exitDy=0;entryX=1;entryY=0.5;entryDx=0;entryDy=0;fontSize=18;fontColor=#000000;strokeColor=#000000;strokeWidth=2;" edge="1" parent="1" source="qlhYkGJH06k92T9zRMgj-7" target="qlhYkGJH06k92T9zRMgj-8">
          <mxGeometry relative="1" as="geometry" />
        </mxCell>
        <mxCell id="qlhYkGJH06k92T9zRMgj-4" style="edgeStyle=orthogonalEdgeStyle;rounded=0;orthogonalLoop=1;jettySize=auto;html=1;exitX=0;exitY=0.5;exitDx=0;exitDy=0;fontSize=18;fontColor=#000000;strokeColor=#000000;strokeWidth=2;" edge="1" parent="1" source="qlhYkGJH06k92T9zRMgj-7" target="qlhYkGJH06k92T9zRMgj-9">
          <mxGeometry relative="1" as="geometry" />
        </mxCell>
        <mxCell id="qlhYkGJH06k92T9zRMgj-5" style="edgeStyle=orthogonalEdgeStyle;rounded=0;orthogonalLoop=1;jettySize=auto;html=1;exitX=0;exitY=0.5;exitDx=0;exitDy=0;entryX=1;entryY=0.5;entryDx=0;entryDy=0;fontSize=18;fontColor=#000000;strokeColor=#000000;strokeWidth=2;" edge="1" parent="1" source="qlhYkGJH06k92T9zRMgj-7" target="qlhYkGJH06k92T9zRMgj-10">
          <mxGeometry relative="1" as="geometry" />
        </mxCell>
        <mxCell id="qlhYkGJH06k92T9zRMgj-6" style="edgeStyle=orthogonalEdgeStyle;rounded=0;orthogonalLoop=1;jettySize=auto;html=1;exitX=0.5;exitY=0;exitDx=0;exitDy=0;fontSize=18;fontColor=#000000;strokeColor=#000000;strokeWidth=2;" edge="1" parent="1" source="qlhYkGJH06k92T9zRMgj-7" target="qlhYkGJH06k92T9zRMgj-12">
          <mxGeometry relative="1" as="geometry" />
        </mxCell>
        <mxCell id="qlhYkGJH06k92T9zRMgj-7" value="&lt;font color=&quot;#000000&quot;&gt;prometheus&lt;/font&gt;" style="rounded=0;whiteSpace=wrap;html=1;fontSize=18;strokeColor=#9673a6;strokeWidth=1;fillColor=#e1d5e7;" vertex="1" parent="1">
          <mxGeometry x="280" y="243" width="120" height="60" as="geometry" />
        </mxCell>
        <mxCell id="qlhYkGJH06k92T9zRMgj-8" value="&lt;font color=&quot;#000000&quot;&gt;target1&lt;/font&gt;" style="rounded=0;whiteSpace=wrap;html=1;fontSize=18;fontColor=#333333;strokeColor=#666666;strokeWidth=1;fillColor=#f5f5f5;" vertex="1" parent="1">
          <mxGeometry x="70" y="133" width="120" height="60" as="geometry" />
        </mxCell>
        <mxCell id="qlhYkGJH06k92T9zRMgj-9" value="&lt;font color=&quot;#000000&quot;&gt;target2&lt;/font&gt;" style="rounded=0;whiteSpace=wrap;html=1;fontSize=18;fontColor=#333333;strokeColor=#666666;strokeWidth=1;fillColor=#f5f5f5;" vertex="1" parent="1">
          <mxGeometry x="70" y="243" width="120" height="60" as="geometry" />
        </mxCell>
        <mxCell id="qlhYkGJH06k92T9zRMgj-10" value="&lt;font color=&quot;#000000&quot;&gt;target3&lt;/font&gt;" style="rounded=0;whiteSpace=wrap;html=1;fontSize=18;fontColor=#333333;strokeColor=#666666;strokeWidth=1;fillColor=#f5f5f5;" vertex="1" parent="1">
          <mxGeometry x="70" y="343" width="120" height="60" as="geometry" />
        </mxCell>
        <mxCell id="qlhYkGJH06k92T9zRMgj-60" style="edgeStyle=orthogonalEdgeStyle;rounded=0;orthogonalLoop=1;jettySize=auto;html=1;exitX=0.5;exitY=0;exitDx=0;exitDy=0;strokeWidth=2;" edge="1" parent="1" source="qlhYkGJH06k92T9zRMgj-12" target="qlhYkGJH06k92T9zRMgj-13">
          <mxGeometry relative="1" as="geometry" />
        </mxCell>
        <mxCell id="qlhYkGJH06k92T9zRMgj-12" value="&lt;font color=&quot;#000000&quot;&gt;alertmanager&lt;/font&gt;" style="whiteSpace=wrap;html=1;fontSize=18;strokeColor=#9673a6;rounded=0;strokeWidth=1;fillColor=#e1d5e7;" vertex="1" parent="1">
          <mxGeometry x="280" y="148" width="120" height="60" as="geometry" />
        </mxCell>
        <mxCell id="qlhYkGJH06k92T9zRMgj-13" value="告警平台" style="whiteSpace=wrap;html=1;fontSize=18;strokeColor=#9673a6;rounded=0;strokeWidth=1;fillColor=#e1d5e7;" vertex="1" parent="1">
          <mxGeometry x="280" y="43" width="120" height="60" as="geometry" />
        </mxCell>
        <mxCell id="qlhYkGJH06k92T9zRMgj-15" value="&lt;font color=&quot;#000000&quot;&gt;prometheus&lt;/font&gt;" style="rounded=0;whiteSpace=wrap;html=1;fontSize=18;strokeColor=#9673a6;strokeWidth=1;fillColor=#e1d5e7;" vertex="1" parent="1">
          <mxGeometry x="290" y="253" width="120" height="60" as="geometry" />
        </mxCell>
        <mxCell id="qlhYkGJH06k92T9zRMgj-16" style="edgeStyle=orthogonalEdgeStyle;rounded=0;orthogonalLoop=1;jettySize=auto;html=1;exitX=0.5;exitY=0;exitDx=0;exitDy=0;entryX=0.45;entryY=1;entryDx=0;entryDy=0;entryPerimeter=0;fontSize=18;fontColor=#000000;strokeColor=#000000;strokeWidth=2;" edge="1" parent="1" source="qlhYkGJH06k92T9zRMgj-17" target="qlhYkGJH06k92T9zRMgj-15">
          <mxGeometry relative="1" as="geometry" />
        </mxCell>
        <mxCell id="qlhYkGJH06k92T9zRMgj-17" value="&lt;font color=&quot;#000000&quot;&gt;告警输入&lt;/font&gt;" style="whiteSpace=wrap;html=1;fontSize=18;strokeColor=#d6b656;rounded=0;strokeWidth=1;fillColor=#fff2cc;gradientColor=#ffd966;" vertex="1" parent="1">
          <mxGeometry x="280" y="363" width="120" height="60" as="geometry" />
        </mxCell>
        <mxCell id="qlhYkGJH06k92T9zRMgj-22" value="&lt;font color=&quot;#000000&quot;&gt;根因分析配置&lt;/font&gt;" style="whiteSpace=wrap;html=1;fontSize=18;strokeColor=#d6b656;rounded=0;strokeWidth=1;fillColor=#fff2cc;gradientColor=#ffd966;" vertex="1" parent="1">
          <mxGeometry x="290" y="588" width="120" height="60" as="geometry" />
        </mxCell>
        <mxCell id="qlhYkGJH06k92T9zRMgj-32" value="&lt;font color=&quot;#000000&quot;&gt;服务卡死信息&lt;/font&gt;" style="whiteSpace=wrap;html=1;fontSize=18;strokeColor=#000000;fontColor=#FF0000;rounded=0;strokeWidth=1;" vertex="1" parent="1">
          <mxGeometry x="979" y="129" width="120" height="30" as="geometry" />
        </mxCell>
        <mxCell id="qlhYkGJH06k92T9zRMgj-34" value="&lt;font color=&quot;#000000&quot;&gt;崩溃信息&lt;/font&gt;" style="whiteSpace=wrap;html=1;fontSize=18;strokeColor=#000000;fontColor=#FF0000;rounded=0;strokeWidth=1;" vertex="1" parent="1">
          <mxGeometry x="979" y="174" width="120" height="30" as="geometry" />
        </mxCell>
        <mxCell id="qlhYkGJH06k92T9zRMgj-35" value="&lt;font color=&quot;#000000&quot;&gt;网络信息&lt;/font&gt;" style="whiteSpace=wrap;html=1;fontSize=18;strokeColor=#000000;fontColor=#FF0000;rounded=0;strokeWidth=1;" vertex="1" parent="1">
          <mxGeometry x="979" y="219" width="120" height="30" as="geometry" />
        </mxCell>
        <mxCell id="qlhYkGJH06k92T9zRMgj-36" value="&lt;font color=&quot;#000000&quot;&gt;副本数信息&lt;/font&gt;" style="whiteSpace=wrap;html=1;fontSize=18;strokeColor=#000000;fontColor=#FF0000;rounded=0;strokeWidth=1;" vertex="1" parent="1">
          <mxGeometry x="979" y="269" width="120" height="30" as="geometry" />
        </mxCell>
        <mxCell id="qlhYkGJH06k92T9zRMgj-37" value="&lt;font color=&quot;#000000&quot;&gt;appid突增信息&lt;/font&gt;" style="whiteSpace=wrap;html=1;fontSize=18;strokeColor=#000000;fontColor=#FF0000;rounded=0;strokeWidth=1;" vertex="1" parent="1">
          <mxGeometry x="979" y="319" width="120" height="30" as="geometry" />
        </mxCell>
        <mxCell id="qlhYkGJH06k92T9zRMgj-38" value="&lt;font color=&quot;#000000&quot;&gt;机器宕机信息&lt;/font&gt;" style="whiteSpace=wrap;html=1;fontSize=18;strokeColor=#000000;fontColor=#FF0000;rounded=0;strokeWidth=1;" vertex="1" parent="1">
          <mxGeometry x="979" y="369" width="120" height="30" as="geometry" />
        </mxCell>
        <mxCell id="qlhYkGJH06k92T9zRMgj-39" value="&lt;font color=&quot;#000000&quot;&gt;等等。。&lt;/font&gt;" style="whiteSpace=wrap;html=1;fontSize=18;strokeColor=#000000;fontColor=#FF0000;rounded=0;strokeWidth=1;" vertex="1" parent="1">
          <mxGeometry x="979" y="419" width="120" height="30" as="geometry" />
        </mxCell>
        <mxCell id="qlhYkGJH06k92T9zRMgj-40" value="&lt;font color=&quot;#ea6b66&quot;&gt;&lt;b&gt;一级分析&lt;/b&gt;&lt;/font&gt;" style="text;html=1;align=center;verticalAlign=middle;resizable=0;points=[];autosize=1;strokeColor=none;fillColor=none;fontSize=18;fontColor=#000000;" vertex="1" parent="1">
          <mxGeometry x="994" y="43" width="90" height="30" as="geometry" />
        </mxCell>
        <mxCell id="qlhYkGJH06k92T9zRMgj-41" value="" style="rounded=1;whiteSpace=wrap;html=1;fontSize=18;fontColor=#000000;strokeColor=#000000;strokeWidth=1;dashed=1;" vertex="1" parent="1">
          <mxGeometry x="1162" y="33" width="250" height="436" as="geometry" />
        </mxCell>
        <mxCell id="qlhYkGJH06k92T9zRMgj-42" value="&lt;font color=&quot;#000000&quot;&gt;网络丢包/延迟&lt;/font&gt;" style="whiteSpace=wrap;html=1;fontSize=18;strokeColor=#000000;fontColor=#FF0000;rounded=0;strokeWidth=1;" vertex="1" parent="1">
          <mxGeometry x="1192" y="134" width="120" height="30" as="geometry" />
        </mxCell>
        <mxCell id="qlhYkGJH06k92T9zRMgj-43" value="&lt;font color=&quot;#000000&quot;&gt;节点CPU/内存/load值/磁盘/网络&lt;/font&gt;" style="whiteSpace=wrap;html=1;fontSize=18;strokeColor=#000000;fontColor=#FF0000;rounded=0;strokeWidth=1;" vertex="1" parent="1">
          <mxGeometry x="1192" y="179" width="120" height="65" as="geometry" />
        </mxCell>
        <mxCell id="qlhYkGJH06k92T9zRMgj-44" value="&lt;font color=&quot;#000000&quot;&gt;容器级别CPU/内存/网络&lt;/font&gt;" style="whiteSpace=wrap;html=1;fontSize=18;strokeColor=#000000;fontColor=#FF0000;rounded=0;strokeWidth=1;" vertex="1" parent="1">
          <mxGeometry x="1192" y="254" width="120" height="50" as="geometry" />
        </mxCell>
        <mxCell id="qlhYkGJH06k92T9zRMgj-45" value="&lt;font color=&quot;#000000&quot;&gt;服务的QPS/延迟/错误数&lt;/font&gt;" style="whiteSpace=wrap;html=1;fontSize=18;strokeColor=#000000;fontColor=#FF0000;rounded=0;strokeWidth=1;" vertex="1" parent="1">
          <mxGeometry x="1193" y="314" width="120" height="55" as="geometry" />
        </mxCell>
        <mxCell id="qlhYkGJH06k92T9zRMgj-46" value="&lt;font color=&quot;#ea6b66&quot;&gt;&lt;b&gt;二级分析&lt;/b&gt;&lt;/font&gt;" style="text;html=1;align=center;verticalAlign=middle;resizable=0;points=[];autosize=1;strokeColor=none;fillColor=none;fontSize=18;fontColor=#000000;" vertex="1" parent="1">
          <mxGeometry x="1207" y="43" width="90" height="30" as="geometry" />
        </mxCell>
        <mxCell id="qlhYkGJH06k92T9zRMgj-47" value="&lt;font color=&quot;#000000&quot;&gt;方差/差分等检测方法&lt;/font&gt;" style="whiteSpace=wrap;html=1;fontSize=18;strokeColor=#d79b00;rounded=0;strokeWidth=1;fillColor=#ffe6cc;" vertex="1" parent="1">
          <mxGeometry x="1322" y="134" width="70" height="310" as="geometry" />
        </mxCell>
        <mxCell id="qlhYkGJH06k92T9zRMgj-48" value="&lt;font color=&quot;#000000&quot;&gt;时空数据&lt;/font&gt;" style="whiteSpace=wrap;html=1;fontSize=18;strokeColor=#000000;fontColor=#FF0000;rounded=0;strokeWidth=1;" vertex="1" parent="1">
          <mxGeometry x="1192" y="384" width="120" height="55" as="geometry" />
        </mxCell>
        <mxCell id="qlhYkGJH06k92T9zRMgj-50" value="根因类别" style="whiteSpace=wrap;html=1;fontSize=18;strokeColor=#6c8ebf;rounded=0;strokeWidth=1;fillColor=#dae8fc;gradientColor=#7ea6e0;" vertex="1" parent="1">
          <mxGeometry x="480" y="238.25" width="80" height="55" as="geometry" />
        </mxCell>
        <mxCell id="qlhYkGJH06k92T9zRMgj-51" value="专家经验" style="whiteSpace=wrap;html=1;fontSize=18;strokeColor=#6c8ebf;rounded=0;strokeWidth=1;fillColor=#dae8fc;gradientColor=#7ea6e0;" vertex="1" parent="1">
          <mxGeometry x="294" y="703" width="120" height="60" as="geometry" />
        </mxCell>
        <mxCell id="qlhYkGJH06k92T9zRMgj-52" value="根因分析图谱建设（一纵一横）" style="whiteSpace=wrap;html=1;fontSize=18;strokeColor=#6c8ebf;rounded=0;strokeWidth=1;fillColor=#dae8fc;gradientColor=#7ea6e0;" vertex="1" parent="1">
          <mxGeometry x="600" y="238.25" width="140" height="52.5" as="geometry" />
        </mxCell>
        <mxCell id="qlhYkGJH06k92T9zRMgj-53" value="根因分析逻辑处理" style="whiteSpace=wrap;html=1;fontSize=18;strokeColor=#6c8ebf;rounded=0;strokeWidth=1;fillColor=#dae8fc;gradientColor=#7ea6e0;" vertex="1" parent="1">
          <mxGeometry x="640" y="573" width="120" height="60" as="geometry" />
        </mxCell>
        <mxCell id="qlhYkGJH06k92T9zRMgj-56" value="k8s信息" style="whiteSpace=wrap;html=1;fontSize=18;strokeColor=#6c8ebf;rounded=0;strokeWidth=1;fillColor=#dae8fc;gradientColor=#7ea6e0;" vertex="1" parent="1">
          <mxGeometry x="860" y="523" width="120" height="60" as="geometry" />
        </mxCell>
        <mxCell id="qlhYkGJH06k92T9zRMgj-57" value="promSQL" style="whiteSpace=wrap;html=1;fontSize=18;strokeColor=#6c8ebf;rounded=0;strokeWidth=1;fillColor=#dae8fc;gradientColor=#7ea6e0;" vertex="1" parent="1">
          <mxGeometry x="860" y="603" width="120" height="60" as="geometry" />
        </mxCell>
        <mxCell id="qlhYkGJH06k92T9zRMgj-58" value="CMDB" style="whiteSpace=wrap;html=1;fontSize=18;strokeColor=#6c8ebf;rounded=0;strokeWidth=1;fillColor=#dae8fc;gradientColor=#7ea6e0;" vertex="1" parent="1">
          <mxGeometry x="860" y="683" width="120" height="60" as="geometry" />
        </mxCell>
        <mxCell id="qlhYkGJH06k92T9zRMgj-59" value="运营DB" style="whiteSpace=wrap;html=1;fontSize=18;strokeColor=#6c8ebf;rounded=0;strokeWidth=1;fillColor=#dae8fc;gradientColor=#7ea6e0;" vertex="1" parent="1">
          <mxGeometry x="860" y="763" width="120" height="60" as="geometry" />
        </mxCell>
        <mxCell id="qlhYkGJH06k92T9zRMgj-64" value="根因分析分类" style="whiteSpace=wrap;html=1;fontSize=18;strokeColor=#6c8ebf;rounded=0;strokeWidth=1;fillColor=#dae8fc;gradientColor=#7ea6e0;" vertex="1" parent="1">
          <mxGeometry x="780" y="239.5" width="80" height="55" as="geometry" />
        </mxCell>
        <mxCell id="qlhYkGJH06k92T9zRMgj-65" value="&lt;b&gt;&lt;font style=&quot;font-size: 22px&quot; color=&quot;#ff3333&quot;&gt;根因分析框架&lt;/font&gt;&lt;/b&gt;" style="text;html=1;align=center;verticalAlign=middle;resizable=0;points=[];autosize=1;strokeColor=none;fillColor=none;" vertex="1" parent="1">
          <mxGeometry x="592" y="202" width="150" height="20" as="geometry" />
        </mxCell>
        <mxCell id="qlhYkGJH06k92T9zRMgj-67" value="" style="rounded=1;whiteSpace=wrap;html=1;" vertex="1" parent="1">
          <mxGeometry x="460" y="343" width="450" height="130" as="geometry" />
        </mxCell>
        <mxCell id="qlhYkGJH06k92T9zRMgj-68" value="专家经验" style="whiteSpace=wrap;html=1;fontSize=18;strokeColor=#6c8ebf;rounded=0;strokeWidth=1;fillColor=#dae8fc;gradientColor=#7ea6e0;" vertex="1" parent="1">
          <mxGeometry x="480" y="394.25" width="80" height="55" as="geometry" />
        </mxCell>
        <mxCell id="qlhYkGJH06k92T9zRMgj-69" value="飞行手册" style="whiteSpace=wrap;html=1;fontSize=18;strokeColor=#6c8ebf;rounded=0;strokeWidth=1;fillColor=#dae8fc;gradientColor=#7ea6e0;" vertex="1" parent="1">
          <mxGeometry x="610" y="394.25" width="140" height="52.5" as="geometry" />
        </mxCell>
        <mxCell id="qlhYkGJH06k92T9zRMgj-70" value="页面配置" style="whiteSpace=wrap;html=1;fontSize=18;strokeColor=#6c8ebf;rounded=0;strokeWidth=1;fillColor=#dae8fc;gradientColor=#7ea6e0;" vertex="1" parent="1">
          <mxGeometry x="800" y="391.75" width="80" height="55" as="geometry" />
        </mxCell>
        <mxCell id="qlhYkGJH06k92T9zRMgj-71" value="&lt;font color=&quot;#ff3333&quot;&gt;&lt;span style=&quot;font-size: 22px&quot;&gt;&lt;b&gt;根因分析输入&lt;/b&gt;&lt;/span&gt;&lt;/font&gt;" style="text;html=1;align=center;verticalAlign=middle;resizable=0;points=[];autosize=1;strokeColor=none;fillColor=none;" vertex="1" parent="1">
          <mxGeometry x="605" y="360" width="150" height="20" as="geometry" />
        </mxCell>
        <mxCell id="qlhYkGJH06k92T9zRMgj-74" value="" style="rounded=1;whiteSpace=wrap;html=1;" vertex="1" parent="1">
          <mxGeometry x="455" y="33" width="450" height="130" as="geometry" />
        </mxCell>
        <mxCell id="qlhYkGJH06k92T9zRMgj-75" value="k8s" style="whiteSpace=wrap;html=1;fontSize=18;strokeColor=#6c8ebf;rounded=0;strokeWidth=1;fillColor=#dae8fc;gradientColor=#7ea6e0;" vertex="1" parent="1">
          <mxGeometry x="475" y="84.25" width="80" height="55" as="geometry" />
        </mxCell>
        <mxCell id="qlhYkGJH06k92T9zRMgj-76" value="cmdb" style="whiteSpace=wrap;html=1;fontSize=18;strokeColor=#6c8ebf;rounded=0;strokeWidth=1;fillColor=#dae8fc;gradientColor=#7ea6e0;" vertex="1" parent="1">
          <mxGeometry x="580" y="84.25" width="75" height="52.5" as="geometry" />
        </mxCell>
        <mxCell id="qlhYkGJH06k92T9zRMgj-77" value="Polaris" style="whiteSpace=wrap;html=1;fontSize=18;strokeColor=#6c8ebf;rounded=0;strokeWidth=1;fillColor=#dae8fc;gradientColor=#7ea6e0;" vertex="1" parent="1">
          <mxGeometry x="682" y="83" width="80" height="55" as="geometry" />
        </mxCell>
        <mxCell id="qlhYkGJH06k92T9zRMgj-78" value="&lt;font color=&quot;#ff3333&quot;&gt;&lt;span style=&quot;font-size: 22px&quot;&gt;&lt;b&gt;数据源获取&lt;/b&gt;&lt;/span&gt;&lt;/font&gt;" style="text;html=1;align=center;verticalAlign=middle;resizable=0;points=[];autosize=1;strokeColor=none;fillColor=none;" vertex="1" parent="1">
          <mxGeometry x="597" y="48" width="130" height="20" as="geometry" />
        </mxCell>
        <mxCell id="qlhYkGJH06k92T9zRMgj-79" value="promQL" style="whiteSpace=wrap;html=1;fontSize=18;strokeColor=#6c8ebf;rounded=0;strokeWidth=1;fillColor=#dae8fc;gradientColor=#7ea6e0;" vertex="1" parent="1">
          <mxGeometry x="800" y="83" width="80" height="55" as="geometry" />
        </mxCell>
        <mxCell id="qlhYkGJH06k92T9zRMgj-81" value="&lt;font color=&quot;#000000&quot;&gt;纵向分析&lt;/font&gt;" style="whiteSpace=wrap;html=1;fontSize=18;strokeColor=#000000;fontColor=#FF0000;rounded=0;strokeWidth=1;" vertex="1" parent="1">
          <mxGeometry x="980" y="84.25" width="120" height="30" as="geometry" />
        </mxCell>
        <mxCell id="qlhYkGJH06k92T9zRMgj-82" value="&lt;font color=&quot;#000000&quot;&gt;横向分析&lt;/font&gt;" style="whiteSpace=wrap;html=1;fontSize=18;strokeColor=#000000;fontColor=#FF0000;rounded=0;strokeWidth=1;" vertex="1" parent="1">
          <mxGeometry x="1192" y="94" width="120" height="30" as="geometry" />
        </mxCell>
      </root>
    </mxGraphModel>
  </diagram>
</mxfile>
